<svg width="21" height="20" viewBox="0 0 21 20" fill="none" xmlns="http://www.w3.org/2000/svg">
<path d="M0.46875 6.70833C0.46875 4.33546 0.46875 3.14902 0.937861 2.24594C1.33318 1.48493 1.95368 0.864425 2.71469 0.469111C3.61777 0 4.80421 0 7.17708 0H13.7604C16.1333 0 17.3197 0 18.2228 0.469111C18.9838 0.864425 19.6043 1.48493 19.9996 2.24594C20.4688 3.14902 20.4688 4.33546 20.4688 6.70833V13.2917C20.4688 15.6645 20.4688 16.851 19.9996 17.7541C19.6043 18.5151 18.9838 19.1356 18.2228 19.5309C17.3197 20 16.1333 20 13.7604 20H7.17708C4.80421 20 3.61777 20 2.71469 19.5309C1.95368 19.1356 1.33318 18.5151 0.937861 17.7541C0.46875 16.851 0.46875 15.6645 0.46875 13.2917V6.70833Z" fill="url(#paint0_linear_216_1305)"/>
<path d="M14.3583 12.7776L14.8027 9.99978H12.1361V8.05534C12.1361 7.27756 12.4138 6.66645 13.6361 6.66645H14.9138V4.11089C14.1916 3.99978 13.4138 3.88867 12.6916 3.88867C10.4138 3.88867 8.80273 5.27756 8.80273 7.77756V9.99978H6.30273V12.7776H8.80273V19.9998C9.91385 19.9998 11.025 19.9998 12.1361 19.9998V12.7776H14.3583Z" fill="white"/>
<defs>
<linearGradient id="paint0_linear_216_1305" x1="10.4687" y1="19.4156" x2="10.4687" y2="0" gradientUnits="userSpaceOnUse">
<stop stop-color="#0062E0"/>
<stop offset="1" stop-color="#19AFFF"/>
</linearGradient>
</defs>
</svg>
