<svg width="19" height="14" viewBox="0 0 19 14" fill="none" xmlns="http://www.w3.org/2000/svg">
<path d="M1.44798 13.7512H4.31161V6.7967L0.220703 3.72852V12.524C0.220703 13.2031 0.77093 13.7512 1.44798 13.7512Z" fill="#4285F4"/>
<path d="M14.1309 13.7512H16.9945C17.6736 13.7512 18.2218 13.201 18.2218 12.524V3.72852L14.1309 6.7967" fill="#34A853"/>
<path d="M14.1309 1.4788V6.79698L18.2218 3.7288V2.09244C18.2218 0.57471 16.4893 -0.290517 15.2763 0.61971" fill="#FBBC04"/>
<path d="M4.3125 6.7967V1.47852L9.22159 5.16033L14.1307 1.47852V6.7967L9.22159 10.4785" fill="#EA4335"/>
<path d="M0.220703 2.09244V3.7288L4.31161 6.79698V1.4788L3.16616 0.61971C1.95116 -0.290517 0.220703 0.57471 0.220703 2.09244Z" fill="#C5221F"/>
</svg>
