<svg width="20" height="20" viewBox="0 0 20 20" fill="none" xmlns="http://www.w3.org/2000/svg">
<rect width="20" height="20" rx="4" fill="url(#paint0_radial_1047_6483)"/>
<rect width="20" height="20" rx="4" fill="url(#paint1_radial_1047_6483)"/>
<path d="M10.0003 2.72729C8.02519 2.72729 7.77732 2.73593 7.00159 2.77123C6.22737 2.80669 5.6989 2.92926 5.23649 3.10911C4.75817 3.29487 4.35243 3.54336 3.9482 3.94775C3.54366 4.35199 3.29519 4.75775 3.10883 5.23593C2.92853 5.69851 2.80581 6.22714 2.77096 7.00108C2.73626 7.77684 2.72717 8.02487 2.72717 10C2.72717 11.9752 2.73596 12.2223 2.77111 12.9981C2.80672 13.7723 2.92929 14.3008 3.10898 14.7632C3.29488 15.2415 3.54336 15.6473 3.94774 16.0515C4.35182 16.4561 4.75757 16.7052 5.23558 16.8909C5.6983 17.0708 6.22692 17.1934 7.00098 17.2288C7.77672 17.2641 8.02444 17.2727 9.99938 17.2727C11.9746 17.2727 12.2217 17.2641 12.9975 17.2288C13.7717 17.1934 14.3008 17.0708 14.7635 16.8909C15.2416 16.7052 15.6468 16.4561 16.0509 16.0515C16.4554 15.6473 16.7039 15.2415 16.8902 14.7634C17.069 14.3008 17.1917 13.7721 17.2281 12.9982C17.2629 12.2224 17.272 11.9752 17.272 10C17.272 8.02487 17.2629 7.77699 17.2281 7.00123C17.1917 6.22699 17.069 5.69851 16.8902 5.23608C16.7039 4.75775 16.4554 4.35199 16.0509 3.94775C15.6463 3.5432 15.2418 3.29472 14.763 3.10911C14.2994 2.92926 13.7706 2.80669 12.9964 2.77123C12.2207 2.73593 11.9737 2.72729 9.99801 2.72729H10.0003ZM9.34788 4.0379C9.54151 4.0376 9.75757 4.0379 10.0003 4.0379C11.942 4.0379 12.1722 4.04487 12.939 4.07972C13.6481 4.11214 14.0329 4.23063 14.2892 4.33017C14.6286 4.46199 14.8706 4.61957 15.125 4.87411C15.3795 5.12866 15.5371 5.37108 15.6692 5.71048C15.7687 5.96654 15.8874 6.35139 15.9197 7.06048C15.9545 7.82714 15.9621 8.05745 15.9621 9.99835C15.9621 11.9393 15.9545 12.1696 15.9197 12.9362C15.8872 13.6453 15.7687 14.0302 15.6692 14.2862C15.5374 14.6256 15.3795 14.8673 15.125 15.1217C14.8704 15.3762 14.6288 15.5338 14.2892 15.6656C14.0332 15.7656 13.6481 15.8838 12.939 15.9162C12.1723 15.9511 11.942 15.9587 10.0003 15.9587C8.05837 15.9587 7.82823 15.9511 7.06159 15.9162C6.35252 15.8835 5.96768 15.765 5.71117 15.6655C5.37179 15.5337 5.12937 15.3761 4.87484 15.1215C4.6203 14.867 4.46273 14.6252 4.33061 14.2856C4.23107 14.0296 4.11243 13.6447 4.08016 12.9356C4.04531 12.169 4.03835 11.9387 4.03835 9.99654C4.03835 8.05442 4.04531 7.82533 4.08016 7.05866C4.11259 6.34957 4.23107 5.96472 4.33061 5.70836C4.46242 5.36896 4.6203 5.12654 4.87484 4.87199C5.12937 4.61745 5.37179 4.45987 5.71117 4.32775C5.96753 4.22775 6.35252 4.10957 7.06159 4.07699C7.73248 4.04669 7.99247 4.0376 9.34788 4.03608V4.0379ZM13.8823 5.24548C13.4005 5.24548 13.0096 5.63593 13.0096 6.1179C13.0096 6.59972 13.4005 6.99063 13.8823 6.99063C14.3641 6.99063 14.755 6.59972 14.755 6.1179C14.755 5.63608 14.3641 5.24517 13.8823 5.24517V5.24548ZM10.0003 6.26517C7.93777 6.26517 6.26555 7.93745 6.26555 10C6.26555 12.0626 7.93777 13.7341 10.0003 13.7341C12.0628 13.7341 13.7344 12.0626 13.7344 10C13.7344 7.93745 12.0626 6.26517 10.0001 6.26517H10.0003ZM10.0003 7.57578C11.339 7.57578 12.4245 8.66108 12.4245 10C12.4245 11.3388 11.339 12.4243 10.0003 12.4243C8.66139 12.4243 7.57612 11.3388 7.57612 10C7.57612 8.66108 8.66139 7.57578 10.0003 7.57578Z" fill="white"/>
<defs>
<radialGradient id="paint0_radial_1047_6483" cx="0" cy="0" r="1" gradientUnits="userSpaceOnUse" gradientTransform="translate(5.31253 21.5404) rotate(-90) scale(19.8215 18.4355)">
<stop stop-color="#FFDD55"/>
<stop offset="0.1" stop-color="#FFDD55"/>
<stop offset="0.5" stop-color="#FF543E"/>
<stop offset="1" stop-color="#C837AB"/>
</radialGradient>
<radialGradient id="paint1_radial_1047_6483" cx="0" cy="0" r="1" gradientUnits="userSpaceOnUse" gradientTransform="translate(-3.35011 1.44077) rotate(78.6806) scale(8.86028 36.5225)">
<stop stop-color="#3771C8"/>
<stop offset="0.128" stop-color="#3771C8"/>
<stop offset="1" stop-color="#6600FF" stop-opacity="0"/>
</radialGradient>
</defs>
</svg>
