<svg width="20" height="20" viewBox="0 0 20 20" fill="none" xmlns="http://www.w3.org/2000/svg">
<path d="M0 6.70833C0 4.33546 0 3.14902 0.469111 2.24594C0.864425 1.48493 1.48493 0.864425 2.24594 0.469111C3.14902 0 4.33546 0 6.70833 0H13.2917C15.6645 0 16.851 0 17.7541 0.469111C18.5151 0.864425 19.1356 1.48493 19.5309 2.24594C20 3.14902 20 4.33546 20 6.70833V13.2917C20 15.6645 20 16.851 19.5309 17.7541C19.1356 18.5151 18.5151 19.1356 17.7541 19.5309C16.851 20 15.6645 20 13.2917 20H6.70833C4.33546 20 3.14902 20 2.24594 19.5309C1.48493 19.1356 0.864425 18.5151 0.469111 17.7541C0 16.851 0 15.6645 0 13.2917V6.70833Z" fill="#1265BF"/>
<path d="M4.4889 6.21023C5.44711 6.21023 6.2239 5.43344 6.2239 4.47523C6.2239 3.51702 5.44711 2.74023 4.4889 2.74023C3.53069 2.74023 2.75391 3.51702 2.75391 4.47523C2.75391 5.43344 3.53069 6.21023 4.4889 6.21023Z" fill="white"/>
<path d="M7.81286 7.49244H10.6883V8.8097C10.6883 8.8097 11.4686 7.24911 13.5917 7.24911C15.4855 7.24911 17.0544 8.18208 17.0544 11.0258V17.0225H14.0746V11.7525C14.0746 10.0749 13.179 9.89041 12.4965 9.89041C11.0802 9.89041 10.8377 11.1121 10.8377 11.9713V17.0225H7.81286V7.49244Z" fill="white"/>
<path d="M2.97646 7.49244H6.00135V17.0225H2.97646V7.49244Z" fill="white"/>
</svg>
