<svg width="21" height="20" viewBox="0 0 21 20" fill="none" xmlns="http://www.w3.org/2000/svg">
<path d="M10.1696 0C4.5373 0 0.169922 4.12739 0.169922 9.69973C0.169922 12.6147 1.36489 15.1346 3.30984 16.8745C3.47233 17.0195 3.57233 17.2245 3.57733 17.4445L3.63233 19.2245C3.63633 19.3554 3.67244 19.4834 3.73749 19.5972C3.80254 19.7109 3.89453 19.8069 4.00537 19.8768C4.11622 19.9467 4.24253 19.9882 4.3732 19.9978C4.50388 20.0075 4.63491 19.9848 4.7548 19.932L6.73974 19.057C6.90724 18.982 7.09723 18.9695 7.27473 19.017C8.1872 19.267 9.15718 19.402 10.1696 19.402C15.802 19.402 20.1694 15.2746 20.1694 9.70223C20.1694 4.12989 15.802 0 10.1696 0Z" fill="url(#paint0_radial_216_1344)"/>
<path d="M4.16481 12.5372L7.10223 7.87728C7.21273 7.70184 7.35841 7.55122 7.53006 7.43491C7.70171 7.31861 7.89561 7.23916 8.09951 7.20157C8.30342 7.16399 8.5129 7.16908 8.71474 7.21654C8.91657 7.264 9.10638 7.35278 9.27217 7.4773L11.6096 9.22975C11.714 9.30787 11.8409 9.34989 11.9713 9.34943C12.1016 9.34898 12.2283 9.30609 12.3321 9.22725L15.487 6.83231C15.907 6.51232 16.457 7.01731 16.177 7.4648L13.2371 12.1222C13.1266 12.2976 12.9809 12.4482 12.8092 12.5645C12.6376 12.6808 12.4437 12.7603 12.2398 12.7979C12.0359 12.8355 11.8264 12.8304 11.6246 12.7829C11.4227 12.7355 11.2329 12.6467 11.0671 12.5222L8.72969 10.7697C8.62534 10.6916 8.49838 10.6496 8.36803 10.65C8.23767 10.6505 8.11101 10.6934 8.00721 10.7722L4.85229 13.1671C4.43231 13.4871 3.88232 12.9846 4.16481 12.5372Z" fill="white"/>
<defs>
<radialGradient id="paint0_radial_216_1344" cx="0" cy="0" r="1" gradientUnits="userSpaceOnUse" gradientTransform="translate(3.51983 19.9995) scale(21.9994 21.9994)">
<stop stop-color="#0099FF"/>
<stop offset="0.6" stop-color="#A033FF"/>
<stop offset="0.9" stop-color="#FF5280"/>
<stop offset="1" stop-color="#FF7061"/>
</radialGradient>
</defs>
</svg>
