<svg width="19" height="18" viewBox="0 0 19 18" fill="none" xmlns="http://www.w3.org/2000/svg">
<path d="M0.544922 18L1.83638 13.2023C0.794851 11.3334 0.463947 9.15247 0.90439 7.05981C1.34483 4.96716 2.52708 3.10311 4.23418 1.80974C5.94128 0.51636 8.05874 -0.119591 10.198 0.0185802C12.3372 0.156752 14.3548 1.05978 15.8804 2.56195C17.406 4.06413 18.3374 6.06469 18.5036 8.19652C18.6698 10.3284 18.0596 12.4485 16.7852 14.1678C15.5107 15.8872 13.6573 17.0905 11.5652 17.5568C9.47311 18.0232 7.28255 17.7214 5.39552 16.7068L0.544922 18ZM5.62941 14.9114L5.92939 15.0889C7.29621 15.897 8.89262 16.2314 10.4699 16.04C12.0471 15.8486 13.5166 15.1422 14.6493 14.0308C15.782 12.9194 16.5143 11.4655 16.7321 9.89559C16.9498 8.32572 16.6409 6.72808 15.8533 5.35164C15.0657 3.97521 13.8438 2.8973 12.3779 2.28588C10.9121 1.67447 9.2846 1.5639 7.74915 1.9714C6.2137 2.37891 4.85652 3.2816 3.88911 4.5388C2.9217 5.796 2.3984 7.3371 2.40076 8.92192C2.39947 10.236 2.76382 11.5247 3.45325 12.6444L3.64137 12.9538L2.91938 15.6316L5.62941 14.9114Z" fill="#00D95F"/>
<path fill-rule="evenodd" clip-rule="evenodd" d="M12.9093 10.1536C12.7334 10.0121 12.5275 9.91256 12.3073 9.86246C12.087 9.81237 11.8581 9.81308 11.6382 9.86454C11.3077 10.0015 11.0941 10.5188 10.8806 10.7774C10.8356 10.8394 10.7694 10.8829 10.6945 10.8997C10.6196 10.9165 10.5412 10.9055 10.4738 10.8687C9.26389 10.396 8.24971 9.52918 7.59601 8.409C7.54026 8.3391 7.51387 8.25035 7.5224 8.16143C7.53094 8.07251 7.57373 7.99036 7.64177 7.93228C7.87995 7.69709 8.05482 7.40579 8.15022 7.08533C8.1714 6.73185 8.09022 6.37975 7.91634 6.07102C7.78191 5.63819 7.52609 5.25279 7.17909 4.96035C7.00011 4.88006 6.80167 4.85314 6.6077 4.88284C6.41373 4.91253 6.23251 4.99758 6.08592 5.12771C5.83143 5.34672 5.62943 5.61988 5.49479 5.92708C5.36016 6.23428 5.29633 6.56769 5.30799 6.90275C5.30878 7.09091 5.33269 7.27827 5.37918 7.46062C5.49724 7.89876 5.67881 8.31735 5.91813 8.70315C6.0908 8.99868 6.2792 9.28479 6.48251 9.56025C7.14326 10.465 7.97384 11.2332 8.92815 11.8222C9.40703 12.1215 9.91884 12.3648 10.4535 12.5474C11.0089 12.7985 11.6221 12.8949 12.228 12.8263C12.5732 12.7742 12.9003 12.6382 13.1804 12.4304C13.4606 12.2226 13.6853 11.9493 13.8347 11.6345C13.9225 11.4444 13.9491 11.2318 13.9109 11.0259C13.8194 10.605 13.255 10.3565 12.9093 10.1536Z" fill="#00D95F"/>
</svg>
